<svg id="Layer_1" data-name="Layer 1" xmlns="http://www.w3.org/2000/svg" xmlns:xlink="http://www.w3.org/1999/xlink" viewBox="0 0 304.66 303.6"><defs><style>.cls-1{fill:url(#linear-gradient);}.cls-2{fill:url(#linear-gradient-2);}.cls-3{fill:#f1f2f2;}</style><linearGradient id="linear-gradient" x1="152.33" y1="247.19" x2="152.33" y2="-48.1" gradientTransform="matrix(1, 0, 0, -1, 0, 245.75)" gradientUnits="userSpaceOnUse"><stop offset="0" stop-color="#f3f3f3"/><stop offset="1" stop-color="#a6a6aa"/></linearGradient><linearGradient id="linear-gradient-2" x1="152.33" y1="253.12" x2="152.33" y2="-53.59" gradientTransform="matrix(1, 0, 0, -1, 0, 245.75)" gradientUnits="userSpaceOnUse"><stop offset="0" stop-color="#ed1c24"/><stop offset="1" stop-color="#830a16"/></linearGradient></defs><title>Icons2</title><path class="cls-1" d="M299,93.51c-9.75-50.43-40.37-79.73-91.3-88.7A320.38,320.38,0,0,0,98,4.64C48.57,13,16.86,40.67,6.55,90.36c-8.16,39.39-8.92,79-1,118.27,9.75,50.44,40.5,81.18,91.43,90.16a320.18,320.18,0,0,0,109.65.17c49.28-8.33,81.81-38.79,92.24-88.13A302.54,302.54,0,0,0,299,93.51Zm-15.1,115.36C279.4,230,270.44,247,257.24,259.59s-30.66,20.68-52,24.29A320.82,320.82,0,0,1,152,288.41a308.85,308.85,0,0,1-53.48-4.69C54.56,276,29.06,250.83,20.56,206.83l0-.17c-7.43-36.8-7.08-75.28,1-114.38C26,71,34.43,54.87,47.45,42.88c12.67-11.67,30.17-19.45,52-23.14a319.72,319.72,0,0,1,53.23-4.53,308.67,308.67,0,0,1,53.48,4.68c44.66,7.87,69.38,31.81,77.8,75.38A293.6,293.6,0,0,1,283.88,208.87Z"/><path class="cls-2" d="M206.16,19.88a308.75,308.75,0,0,0-53.48-4.68,319.93,319.93,0,0,0-53.24,4.53c-21.83,3.69-39.32,11.48-52,23.15C34.42,54.86,26,71,21.55,92.27c-8.11,39.1-8.46,77.59-1,114.39l0,.16c8.5,44,34,69.16,77.94,76.9A309.74,309.74,0,0,0,152,288.4a321,321,0,0,0,53.24-4.52c21.36-3.62,38.87-11.79,52-24.3s22.17-29.61,26.65-50.71A293.71,293.71,0,0,0,284,95.25C275.54,51.7,250.82,27.74,206.16,19.88Z"/><circle class="cls-3" cx="151.7" cy="123.17" r="35.12"/><path class="cls-3" d="M152.33,57.67a94.14,94.14,0,1,0,94.14,94.13A94.13,94.13,0,0,0,152.33,57.67Zm56.18,153.66a59.14,59.14,0,0,0-113.36-1,81.88,81.88,0,1,1,113.36,1Z"/></svg>