<svg id="Layer_1" data-name="Layer 1" xmlns="http://www.w3.org/2000/svg" xmlns:xlink="http://www.w3.org/1999/xlink" viewBox="0 0 304.66 303.6"><defs><style>.cls-1{fill:url(#linear-gradient);}.cls-2{fill:url(#linear-gradient-2);}.cls-3{fill:#f1f2f2;}</style><linearGradient id="linear-gradient" x1="152.33" y1="247.19" x2="152.33" y2="-48.1" gradientTransform="matrix(1, 0, 0, -1, 0, 245.75)" gradientUnits="userSpaceOnUse"><stop offset="0" stop-color="#f3f3f3"/><stop offset="1" stop-color="#a6a6aa"/></linearGradient><linearGradient id="linear-gradient-2" x1="152.33" y1="253.12" x2="152.33" y2="-53.59" gradientTransform="matrix(1, 0, 0, -1, 0, 245.75)" gradientUnits="userSpaceOnUse"><stop offset="0" stop-color="#8a2c86"/><stop offset="1" stop-color="#652d85"/></linearGradient></defs><title>Icons2</title><path class="cls-1" d="M299,93.51c-9.75-50.43-40.37-79.73-91.3-88.7A320.38,320.38,0,0,0,98,4.64C48.57,13,16.86,40.67,6.55,90.36c-8.16,39.39-8.92,79-1,118.27,9.75,50.44,40.5,81.18,91.43,90.16a320.18,320.18,0,0,0,109.65.17c49.28-8.33,81.81-38.79,92.24-88.13A302.54,302.54,0,0,0,299,93.51Zm-15.1,115.36C279.4,230,270.44,247,257.24,259.59s-30.66,20.68-52,24.29A320.82,320.82,0,0,1,152,288.41a308.85,308.85,0,0,1-53.48-4.69C54.56,276,29.06,250.83,20.56,206.83l0-.17c-7.43-36.8-7.08-75.28,1-114.38C26,71,34.43,54.87,47.45,42.88c12.67-11.67,30.17-19.45,52-23.14a319.72,319.72,0,0,1,53.23-4.53,308.67,308.67,0,0,1,53.48,4.68c44.66,7.87,69.38,31.81,77.8,75.38A293.6,293.6,0,0,1,283.88,208.87Z"/><path class="cls-2" d="M206.16,19.89a308.85,308.85,0,0,0-53.48-4.69,320.91,320.91,0,0,0-53.24,4.53c-21.83,3.69-39.33,11.48-52,23.15C34.42,54.86,26,71,21.54,92.27c-8.11,39.1-8.45,77.59-1,114.39l0,.17c8.51,44,34,69.15,77.94,76.89A308.88,308.88,0,0,0,152,288.41a321,321,0,0,0,53.24-4.53c21.36-3.61,38.87-11.78,52-24.3s22.16-29.6,26.64-50.71A293.7,293.7,0,0,0,284,95.25C275.54,51.7,250.82,27.75,206.16,19.89Z"/><path class="cls-3" d="M116.05,173.56h94.14V188c-.58,0-1.18.08-1.77.08q-45.72,0-91.44,0c-7.66,0-13.44-4.25-15-11.23a14.12,14.12,0,0,1,2.84-12.4c3.47-4.32,6.7-8.82,10-13.29a2.1,2.1,0,0,0,.2-1.65Q106,122.34,96.86,95.15c-.36-1.06-.93-1.21-1.86-1.21-4.36,0-8.71,0-13.07,0-.6,0-1.21,0-1.92-.08V79.52c.51,0,1-.11,1.58-.11,7.92,0,15.84,0,23.75,0a1.77,1.77,0,0,1,2,1.47q10.27,31,20.6,62a2.17,2.17,0,0,0,2.48,1.8q29.25-.07,58.52,0a2.41,2.41,0,0,0,2.6-1.74q10.41-23.7,20.89-47.38c.51-1.18,1.07-1.89,2.47-1.64a11.53,11.53,0,0,0,1.86,0c6.22.09,9.53,5.15,7,10.86-3.68,8.43-7.43,16.82-11.14,25.24s-7.49,17-11.25,25.55a5.89,5.89,0,0,1-4.92,3.41,21.16,21.16,0,0,1-3.38.19q-32.15,0-64.29,0a3.24,3.24,0,0,0-3,1.45c-2.75,3.73-5.6,7.39-8.4,11.08C117.07,172.15,116.69,172.69,116.05,173.56Z"/><path class="cls-3" d="M166.84,108.41h14.48l-21.74,29-21.69-28.92h14.42v-29h14.53Z"/><path class="cls-3" d="M195.81,224.22a14.46,14.46,0,1,1,14.49-14.45A14.61,14.61,0,0,1,195.81,224.22Z"/><path class="cls-3" d="M115.92,224.22a14.46,14.46,0,1,1,14.68-14A14.46,14.46,0,0,1,115.92,224.22Z"/></svg>