<svg id="Layer_1" data-name="Layer 1" xmlns="http://www.w3.org/2000/svg" xmlns:xlink="http://www.w3.org/1999/xlink" viewBox="0 0 304.66 303.6"><defs><style>.cls-1{fill:url(#linear-gradient);}.cls-2{fill:url(#linear-gradient-2);}.cls-3{fill:#f1f2f2;}</style><linearGradient id="linear-gradient" x1="152.33" y1="247.19" x2="152.33" y2="-48.1" gradientTransform="matrix(1, 0, 0, -1, 0, 245.75)" gradientUnits="userSpaceOnUse"><stop offset="0" stop-color="#f3f3f3"/><stop offset="1" stop-color="#a6a6aa"/></linearGradient><linearGradient id="linear-gradient-2" x1="152.33" y1="253.12" x2="152.33" y2="-53.59" gradientTransform="matrix(1, 0, 0, -1, 0, 245.75)" gradientUnits="userSpaceOnUse"><stop offset="0" stop-color="#8a2c86"/><stop offset="1" stop-color="#652d85"/></linearGradient></defs><title>Icons2</title><path class="cls-1" d="M299,93.51c-9.75-50.43-40.37-79.73-91.3-88.7A320.38,320.38,0,0,0,98,4.64C48.57,13,16.86,40.67,6.55,90.36c-8.16,39.39-8.92,79-1,118.27,9.75,50.44,40.5,81.18,91.43,90.16a320.18,320.18,0,0,0,109.65.17c49.28-8.33,81.81-38.79,92.24-88.13A302.54,302.54,0,0,0,299,93.51Zm-15.1,115.36C279.4,230,270.44,247,257.24,259.59s-30.66,20.68-52,24.29A320.82,320.82,0,0,1,152,288.41a308.85,308.85,0,0,1-53.48-4.69C54.56,276,29.06,250.83,20.56,206.83l0-.17c-7.43-36.8-7.08-75.28,1-114.38C26,71,34.43,54.87,47.45,42.88c12.67-11.67,30.17-19.45,52-23.14a319.72,319.72,0,0,1,53.23-4.53,308.67,308.67,0,0,1,53.48,4.68c44.66,7.87,69.38,31.81,77.8,75.38A293.6,293.6,0,0,1,283.88,208.87Z"/><path class="cls-2" d="M206.16,19.89a308.85,308.85,0,0,0-53.48-4.69,320.91,320.91,0,0,0-53.24,4.53c-21.83,3.69-39.33,11.48-52,23.15C34.42,54.86,26,71,21.54,92.27c-8.11,39.1-8.45,77.59-1,114.39l0,.17c8.51,44,34,69.15,77.94,76.89A308.88,308.88,0,0,0,152,288.41a321,321,0,0,0,53.24-4.53c21.36-3.61,38.87-11.78,52-24.3s22.16-29.6,26.64-50.71A293.7,293.7,0,0,0,284,95.25C275.54,51.7,250.82,27.75,206.16,19.89Z"/><path class="cls-3" d="M71.08,174c.18-.87.29-1.75.55-2.58q9.48-30.58,19-61.16c1.53-4.93,4.9-6.74,9.82-5.21q51.7,16,103.4,32.06L235.6,147c4.84,1.51,6.66,5,5.14,9.89q-9.41,30.33-18.82,60.65c-1.63,5.24-4.92,6.94-10.21,5.29l-73.82-22.9-61.16-19C73.16,179.8,71.19,177.35,71.08,174Zm148.35-6.88c-1.5-.89-2.84-1.64-4.12-2.47a13,13,0,0,1-6.07-9.36,39.56,39.56,0,0,1-.28-6.53c0-1-.25-1.47-1.22-1.76-3.44-1-6.87-2.11-10.3-3.18q-36.84-11.43-73.65-22.88c-1.29-.41-1.91-.24-2.59,1-3.7,7-9.3,9.88-17.24,8.93-1.27-.15-1.73.23-2.08,1.42-1.83,6.1-3.75,12.17-5.63,18.25l-3.16,10.15c8.1,4.17,11.7,10.64,10.43,19.8l86.84,26.94c.85-1.33,1.5-2.45,2.25-3.5a15.94,15.94,0,0,1,13.54-7.13c1.33,0,3,.39,3.89-.27s1-2.42,1.41-3.71C214.11,184.31,216.76,175.75,219.43,167.12Z"/><path class="cls-3" d="M187.43,88.6h-91C95.16,97.75,90,103.05,80.7,104.2c0,5.06,0,10,0,14.85a10,10,0,0,1-.36,2.78Q74.73,140,69.06,158.16c-.11.39-.27.76-.4,1.12-3.19-.56-5.25-3.23-5.26-6.81q0-18.43,0-36.88,0-13.83,0-27.66c0-4.88,2.82-7.71,7.68-7.71H212.91c4.81,0,7.64,2.78,7.65,7.56q0,23,0,45.92v1.93c-5.69-1.76-11.09-3.4-16.46-5.18-.43-.14-.8-1.2-.8-1.83-.06-7.39-.08-14.78,0-22.17,0-1.67-.29-2.47-2.18-2.74-7.74-1.11-11.46-6.34-13.22-13.42C187.75,89.72,187.59,89.17,187.43,88.6Z"/><path class="cls-3" d="M167.81,119.26l-20.24-6.46,3.14-3.59c-2-2.32-4.67-2.66-7.47-3.16V101.9H140v3.63c-2,1.15-3.78,2.16-5.55,3.12a1.16,1.16,0,0,1-.82,0l-12.48-3.86c4-7,15.45-13.28,27.57-10C159.85,97.76,169,109.43,167.81,119.26Z"/><path class="cls-3" d="M156.33,190.07a26.09,26.09,0,1,1,26-26.1A26.21,26.21,0,0,1,156.33,190.07Zm-3.17-12a31.23,31.23,0,0,0,4.69-.31,8.91,8.91,0,0,0,7.16-7.22c.81-3.54-1-5.85-3.71-7.75-1.73-1.22-3.45-2.48-5.13-3.78-.86-.66-2-1.36-1.38-2.71s2-1.26,3.25-1a8.69,8.69,0,0,1,5.67,3.4l4.08-2.38c-1.25-2.86-3.81-4-6.26-5.31l1.2-4.13-3.18-.88c-.15,3.17-1.53,4.24-4.66,4.23s-4.84,2.5-5.86,5.39a5.72,5.72,0,0,0,1.76,6.84c1.53,1.3,3.12,2.52,4.7,3.75.79.62,1.68,1.12,2.4,1.8a2.75,2.75,0,0,1,.79,3.37c-.63,1.32-1.72,1.6-3.09,1.46a10,10,0,0,1-7.62-4.59l-4.54,2.23c1.24,3.34,4.14,4.61,6.76,6.27l-1.18,4,2.87.93Z"/></svg>