<svg id="Layer_1" data-name="Layer 1" xmlns="http://www.w3.org/2000/svg" xmlns:xlink="http://www.w3.org/1999/xlink" viewBox="0 0 304.66 303.6"><defs><style>.cls-1{fill:url(#linear-gradient);}.cls-2{fill:url(#linear-gradient-2);}.cls-3{fill:#f1f2f2;}</style><linearGradient id="linear-gradient" x1="152.33" y1="247.19" x2="152.33" y2="-48.1" gradientTransform="matrix(1, 0, 0, -1, 0, 245.75)" gradientUnits="userSpaceOnUse"><stop offset="0" stop-color="#f3f3f3"/><stop offset="1" stop-color="#a6a6aa"/></linearGradient><linearGradient id="linear-gradient-2" x1="152.33" y1="288.4" x2="152.33" y2="15.2" gradientUnits="userSpaceOnUse"><stop offset="0" stop-color="#975a04"/><stop offset="1" stop-color="#fbb040"/></linearGradient></defs><title>Icons2</title><path class="cls-1" d="M299,93.51c-9.75-50.43-40.37-79.73-91.3-88.7A320.38,320.38,0,0,0,98,4.64C48.57,13,16.86,40.67,6.55,90.36c-8.16,39.39-8.92,79-1,118.27,9.75,50.44,40.5,81.18,91.43,90.16a320.18,320.18,0,0,0,109.65.17c49.28-8.33,81.81-38.79,92.24-88.13A302.54,302.54,0,0,0,299,93.51Zm-15.1,115.36C279.4,230,270.44,247,257.24,259.59s-30.66,20.68-52,24.29A320.82,320.82,0,0,1,152,288.41a308.85,308.85,0,0,1-53.48-4.69C54.56,276,29.06,250.83,20.56,206.83l0-.17c-7.43-36.8-7.08-75.28,1-114.38C26,71,34.43,54.87,47.45,42.88c12.67-11.67,30.17-19.45,52-23.14a319.72,319.72,0,0,1,53.23-4.53,308.67,308.67,0,0,1,53.48,4.68c44.66,7.87,69.38,31.81,77.8,75.38A293.6,293.6,0,0,1,283.88,208.87Z"/><path class="cls-2" d="M206.16,19.88a308.75,308.75,0,0,0-53.48-4.68,319.93,319.93,0,0,0-53.24,4.53c-21.83,3.69-39.32,11.48-52,23.15C34.42,54.86,26,71,21.55,92.27c-8.11,39.1-8.46,77.59-1,114.39l0,.16c8.5,44,34,69.16,77.94,76.9A309.74,309.74,0,0,0,152,288.4a321,321,0,0,0,53.24-4.52c21.36-3.62,38.87-11.79,52-24.3s22.17-29.61,26.65-50.71A293.71,293.71,0,0,0,284,95.25C275.54,51.7,250.82,27.74,206.16,19.88Z"/><path class="cls-3" d="M197.43,159.14c7.83,14.36,24.33,16.13,33.9.23,5.54,1.36,8,4.4,8,10q0,6.63,0,13.27c0,2.56-.88,3.47-3.39,3.47H193c-2.69,0-3.48-.83-3.48-3.54,0-5,0-10,.05-14.92a7.92,7.92,0,0,1,3.61-6.71A23.93,23.93,0,0,1,197.43,159.14Z"/><path class="cls-3" d="M73.35,159.29c8,14.52,24.45,15.69,33.79.09,5.39,1.17,8,4.28,8,9.77,0,4.61,0,9.21,0,13.82,0,2.24-.9,3.15-3.11,3.15q-21.64,0-43.28,0c-2.41,0-3.41-1.08-3.42-3.53,0-4.18,0-8.35,0-12.53C65.32,163.5,67,161.22,73.35,159.29Z"/><path class="cls-3" d="M135.44,84.05c8.11,14.56,24.46,15.64,33.78.06,5.56,1.25,8.09,4.37,8.08,9.92q0,6.54,0,13.08c0,2.86-.91,3.77-3.72,3.77H131c-2.51,0-3.37-.88-3.37-3.46q0-6.63,0-13.26C127.67,88.42,129.76,85.68,135.44,84.05Z"/><path class="cls-3" d="M169.25,219.11c5.91,1.72,8.26,4.85,8.26,10.86,0,4.17,0,8.35,0,12.52,0,2.6-.84,3.43-3.42,3.44H131.17c-2.61,0-3.49-.93-3.5-3.58,0-4.67,0-9.33,0-14,0-5,2.8-8.23,7.77-9.14C143.43,233.71,160,234.67,169.25,219.11Z"/><path class="cls-3" d="M152.28,57.67c9.51,0,16.24,8.7,13.93,18.21a18.67,18.67,0,0,1-7.63,11.56,10.52,10.52,0,0,1-11.81.45c-6.5-3.68-10.32-13.3-8.08-20.27A14.18,14.18,0,0,1,152.28,57.67Z"/><path class="cls-3" d="M152.44,192.73c9.54.1,16.11,8.85,13.73,18.35a18.49,18.49,0,0,1-7.87,11.6,10.35,10.35,0,0,1-10.35.86c-7.22-3.22-11.71-13.51-9.22-21A14.26,14.26,0,0,1,152.44,192.73Z"/><path class="cls-3" d="M228.7,148.42a18.89,18.89,0,0,1-7.43,13.77c-4.22,3.38-9.22,3.36-13.6.18-6.12-4.44-9.17-13.6-6.72-20.15A14.3,14.3,0,0,1,217,133.09C223.73,134.32,228.68,140.29,228.7,148.42Z"/><path class="cls-3" d="M76,148.7c-.08-9.87,6.71-16.2,15.49-15.72,7.93.42,14,7.85,13,16.11a19,19,0,0,1-7.19,13A10.66,10.66,0,0,1,83.06,162,18.67,18.67,0,0,1,76,148.7Z"/><path class="cls-3" d="M149.41,158.44q0-11.61,0-23.22c0-1.53.37-2.84,2-3.32,2.18-.64,3.81.66,3.82,3.11,0,8.05,0,16.1,0,24.15,0,7.43.05,14.87-.07,22.3a4.32,4.32,0,0,1-1.41,3.1c-2,1.47-4.34-.15-4.35-2.89,0-7.75,0-15.49,0-23.23Z"/><path class="cls-3" d="M142.76,129.57a16.66,16.66,0,0,1-1.34,2.64q-8.56,10.83-17.18,21.61c-1,1.24-2.19,2-3.83,1.5-2-.64-2.48-2.87-1-4.79,4.22-5.35,8.48-10.66,12.73-16q2.52-3.18,5-6.34a2.34,2.34,0,0,1,3.09-.84A14.11,14.11,0,0,1,142.76,129.57Z"/><path class="cls-3" d="M186.38,152.66a11.88,11.88,0,0,1-2.29,2.49c-1.26.78-2.36-.07-3.17-1.07q-5.65-7-11.27-14.1c-2.1-2.64-4.21-5.27-6.3-7.93-1.33-1.7-1.28-3.47.1-4.55s3.12-.64,4.36.91q8.74,10.92,17.44,21.89A14.28,14.28,0,0,1,186.38,152.66Z"/><path class="cls-3" d="M108.9,100a3.09,3.09,0,0,1,3.14,2.76,2.93,2.93,0,0,1-2.89,3c-2,.07-3.31-1-3.29-2.63A3.17,3.17,0,0,1,108.9,100Z"/><path class="cls-3" d="M181.66,208.84a3,3,0,0,1,3.1-2.74,2.82,2.82,0,0,1,2.81,3,2.85,2.85,0,0,1-3.14,2.82A3,3,0,0,1,181.66,208.84Z"/><path class="cls-3" d="M111.4,200.39a2.93,2.93,0,0,1-2.85,3,3.31,3.31,0,0,1-3-3.13,2.71,2.71,0,0,1,2.69-2.67A2.94,2.94,0,0,1,111.4,200.39Z"/><path class="cls-3" d="M118.84,97.87a2.7,2.7,0,0,1-3.07,2.68,2.81,2.81,0,0,1-2.87-2.75,3.18,3.18,0,0,1,3.17-3A2.82,2.82,0,0,1,118.84,97.87Z"/><path class="cls-3" d="M105.47,194.33a3.07,3.07,0,0,1-2.9,3,3.19,3.19,0,0,1-3-2.89,2.64,2.64,0,0,1,2.88-2.83A2.92,2.92,0,0,1,105.47,194.33Z"/><path class="cls-3" d="M106,109.15A2.74,2.74,0,0,1,103.1,112a3.25,3.25,0,0,1-3-3.07c0-1.53,1.45-2.68,3.34-2.65A2.54,2.54,0,0,1,106,109.15Z"/><path class="cls-3" d="M115.2,203a3,3,0,0,1,3.14,2.91,2.93,2.93,0,0,1-2.86,2.8,3.07,3.07,0,0,1-3.11-3A2.62,2.62,0,0,1,115.2,203Z"/><path class="cls-3" d="M210.46,116.79a3.35,3.35,0,0,1-2.89,3.26,3,3,0,0,1-.09-6A3.47,3.47,0,0,1,210.46,116.79Z"/><path class="cls-3" d="M194.7,204.25a3,3,0,0,1-3,2.82,2.82,2.82,0,0,1-2.72-2.88,2.87,2.87,0,1,1,5.73.06Z"/><path class="cls-3" d="M174.05,212.52a2.9,2.9,0,1,1,2.73,3.08A2.94,2.94,0,0,1,174.05,212.52Z"/><path class="cls-3" d="M190,95.72a2.77,2.77,0,0,1,2.94,2.84,3,3,0,0,1-2.75,2.92,2.78,2.78,0,0,1-2.87-2.93A2.6,2.6,0,0,1,190,95.72Z"/><path class="cls-3" d="M122.43,207.23a2.81,2.81,0,0,1,2.8,2.56,3,3,0,0,1-6,.37A3.2,3.2,0,0,1,122.43,207.23Z"/><path class="cls-3" d="M97.62,118.59A2.65,2.65,0,0,1,94.86,116a3.34,3.34,0,0,1,2.74-3.2,3.19,3.19,0,0,1,3,2.89A3,3,0,0,1,97.62,118.59Z"/><path class="cls-3" d="M201.31,198.41a2.94,2.94,0,0,1-3,2.86,2.84,2.84,0,1,1,.14-5.68A3,3,0,0,1,201.31,198.41Z"/><path class="cls-3" d="M96.27,123.2a2.88,2.88,0,0,1-3,2.83,2.78,2.78,0,0,1-2.72-2.86,2.81,2.81,0,0,1,2.94-2.85A2.91,2.91,0,0,1,96.27,123.2Z"/><path class="cls-3" d="M211.55,127.46a2.83,2.83,0,0,1-2.79-2.78,2.87,2.87,0,0,1,2.63-3,3,3,0,0,1,3,2.8A2.9,2.9,0,0,1,211.55,127.46Z"/><path class="cls-3" d="M204.17,195a2.81,2.81,0,0,1-2.92-3.06,2.77,2.77,0,0,1,2.76-2.64,2.94,2.94,0,0,1,2.94,2.9A2.74,2.74,0,0,1,204.17,195Z"/><path class="cls-3" d="M132.84,213.8a2.93,2.93,0,0,1-2.74,2.92,3,3,0,0,1-2.83-3.07,3.15,3.15,0,0,1,2.83-2.87A3.51,3.51,0,0,1,132.84,213.8Z"/><path class="cls-3" d="M202.67,112.94a3.06,3.06,0,0,1-2.74-2.92,2.71,2.71,0,0,1,2.72-2.84,2.89,2.89,0,0,1,2.87,2.75A3,3,0,0,1,202.67,112.94Z"/><path class="cls-3" d="M196.61,106.85a3,3,0,0,1-2.64-3.16,2.61,2.61,0,0,1,2.79-2.53,2.84,2.84,0,0,1,2.76,3A2.81,2.81,0,0,1,196.61,106.85Z"/><path class="cls-3" d="M183.1,91.11A2.8,2.8,0,0,1,185.52,94c.09,1.65-.91,2.35-2.42,3Z"/><path class="cls-3" d="M121.54,95.56c-1.73-1.8-1.7-2.93,0-4.44Z"/></svg>