<?xml version="1.0" encoding="utf-8"?>
<!-- Generator: Adobe Illustrator 24.0.1, SVG Export Plug-In . SVG Version: 6.00 Build 0)  -->
<svg version="1.1" id="Layer_1" xmlns="http://www.w3.org/2000/svg" xmlns:xlink="http://www.w3.org/1999/xlink" x="0px" y="0px"
	 viewBox="0 0 304.7 303.6" style="enable-background:new 0 0 304.7 303.6;" xml:space="preserve">
<style type="text/css">
	.st0{fill:url(#SVGID_1_);}
	.st1{fill:url(#SVGID_2_);}
	.st2{fill:url(#SVGID_3_);}
	.st3{fill:url(#SVGID_4_);}
	.st4{fill:url(#SVGID_5_);}
	.st5{fill:url(#SVGID_6_);}
	.st6{fill:url(#SVGID_7_);}
	.st7{fill:url(#SVGID_8_);}
	.st8{fill:url(#SVGID_9_);}
	.st9{fill:url(#SVGID_10_);}
	.st10{fill:url(#SVGID_11_);}
	.st11{fill:url(#SVGID_12_);}
	.st12{fill:#F1F2F2;}
	.st13{fill:#FFFFFF;}
</style>
<linearGradient id="SVGID_1_" gradientUnits="userSpaceOnUse" x1="152.3317" y1="247.1881" x2="152.3317" y2="-48.0956" gradientTransform="matrix(1 0 0 -1 0 245.7505)">
	<stop  offset="0" style="stop-color:#F3F3F3"/>
	<stop  offset="1" style="stop-color:#A6A6AA"/>
</linearGradient>
<path class="st0" d="M299,93.5c-9.8-50.4-40.4-79.7-91.3-88.7C171.2-1.6,134.6-1.5,98,4.6C48.6,13,16.9,40.7,6.6,90.4
	c-8.2,39.4-8.9,79-1,118.3c9.8,50.4,40.5,81.2,91.4,90.2c36.5,6.4,73.1,6.4,109.6,0.2c49.3-8.3,81.8-38.8,92.2-88.1
	C306.6,171.9,306.5,132.5,299,93.5z M283.9,208.9c-4.5,21.1-13.4,38.2-26.6,50.7c-13.2,12.5-30.7,20.7-52,24.3
	c-17.8,3-35.7,4.5-53.2,4.5c-17.9,0-35.8-1.6-53.5-4.7c-43.9-7.7-69.4-32.9-77.9-76.9l0-0.2c-7.4-36.8-7.1-75.3,1-114.4
	C26,71,34.4,54.9,47.4,42.9c12.7-11.7,30.2-19.5,52-23.1c17.8-3,35.7-4.5,53.2-4.5c17.9,0,35.8,1.6,53.5,4.7
	c44.7,7.9,69.4,31.8,77.8,75.4C291.3,133.4,291.3,171.6,283.9,208.9z"/>
<linearGradient id="SVGID_2_" gradientUnits="userSpaceOnUse" x1="152.3317" y1="288.4043" x2="152.3317" y2="15.1996">
	<stop  offset="0" style="stop-color:#0C4B7D"/>
	<stop  offset="1" style="stop-color:#00AEEF"/>
</linearGradient>
<path class="st1" d="M206.2,19.9c-17.6-3.1-35.6-4.7-53.5-4.7c-17.5,0-35.5,1.5-53.2,4.5c-21.8,3.7-39.3,11.5-52,23.1
	c-13,12-21.5,28.1-25.9,49.4c-8.1,39.1-8.5,77.6-1,114.4l0,0.2c8.5,44,34,69.2,77.9,76.9c17.6,3.1,35.6,4.7,53.5,4.7
	c17.6,0,35.5-1.5,53.2-4.5c21.4-3.6,38.9-11.8,52-24.3c13.2-12.5,22.2-29.6,26.6-50.7c7.4-37.3,7.4-75.5,0.1-113.6
	C275.5,51.7,250.8,27.7,206.2,19.9z"/>
<g>
	<path class="st12" d="M113.9,92.3c0,3.2,0,6.5,0,10.2c-2.3,0.5-4.8,0.9-7.1,1.6c-5.1,1.5-8.3,4.9-9,10.2c-0.5,3.9-0.7,7.9-0.7,11.9
		c-0.1,27-0.1,54.1,0,81.1c0,13.6,4.6,18.1,18,18.1c25.4,0,50.7,0,76.1,0c11,0,16.2-5,16.3-16c0.1-29.6,0.1-59.1-0.1-88.7
		c-0.1-12.4-3.6-16.1-16.6-18.1c0-3.4,0-6.8,0-10.2c14.3-2.8,27,10.4,27,23c0,14.9,0.1,29.8,0.1,44.7c0,17.4,0.1,34.8-0.1,52.2
		c-0.2,14.6-10,24.3-24.6,24.4c-27.2,0.1-54.5,0.1-81.7,0c-14.6-0.1-24.6-9.8-24.6-24.3c-0.2-31.7-0.2-63.3-0.1-95
		C86.9,101.4,98.8,90.5,113.9,92.3z"/>
	<path class="st12" d="M133.3,85.3c4-13.1,9.6-18.5,19.1-18.5c9.4,0,15.3,5.6,18.8,17.6c4,1.5,8.6,1.8,11.1,4.3
		c4.7,4.8,3.3,11.4,1.8,17.2c-1.4,5.4-6.3,5.9-11.2,5.8c-13.4-0.1-26.8,0-40.2,0c-9.3,0-12.5-2.7-12.8-10.7
		c-0.3-12.3,1.6-14.7,11.8-15.4C132,85.6,132.4,85.5,133.3,85.3z M142.2,85c7.1,0,13.5,0,20.3,0c-1.2-6.4-4.5-9.8-10.3-9.7
		C146.4,75.5,143.2,78.9,142.2,85z"/>
	<path class="st12" d="M191.3,128.9c0,11.9,0,22.5,0,33.7c-25.8,0-51.4,0-77.5,0c0-11.3,0-22.6,0-35.1c5.2,4.9,9.8,9,14,13.4
		c2.3,2.5,4.4,3,6.9,0.7c7-6.5,14.9-7.1,23-3c11.2,5.6,20.2,3,28.3-5.8C187.2,131.5,188.9,130.6,191.3,128.9z"/>
	<path class="st12" d="M113.7,187c-1.2-4.1,0-5.6,4.1-5.6c23,0.1,46.1,0.1,69.1,0c4.1,0,5.3,1.5,4.1,5.6
		C165.5,187,139.8,187,113.7,187z"/>
	<path class="st12" d="M191,208.5c-25.9,0-51.4,0-76.9,0c-0.9-5.5-0.9-5.7,3.7-5.7c23-0.1,46.1,0,69.1-0.1
		C191.1,202.8,192.2,204.4,191,208.5z"/>
</g>
</svg>
