<svg id="Layer_1" data-name="Layer 1" xmlns="http://www.w3.org/2000/svg" xmlns:xlink="http://www.w3.org/1999/xlink" viewBox="0 0 304.66 303.6"><defs><style>.cls-1{fill:url(#linear-gradient);}.cls-2{fill:url(#linear-gradient-2);}.cls-3{fill:#f1f2f2;}</style><linearGradient id="linear-gradient" x1="152.33" y1="247.19" x2="152.33" y2="-48.1" gradientTransform="matrix(1, 0, 0, -1, 0, 245.75)" gradientUnits="userSpaceOnUse"><stop offset="0" stop-color="#f3f3f3"/><stop offset="1" stop-color="#a6a6aa"/></linearGradient><linearGradient id="linear-gradient-2" x1="152.33" y1="253.12" x2="152.33" y2="-53.59" gradientTransform="matrix(1, 0, 0, -1, 0, 245.75)" gradientUnits="userSpaceOnUse"><stop offset="0" stop-color="#ed1c24"/><stop offset="1" stop-color="#830a16"/></linearGradient></defs><title>Icons2</title><path class="cls-1" d="M299,93.51c-9.75-50.43-40.37-79.73-91.3-88.7A320.38,320.38,0,0,0,98,4.64C48.57,13,16.86,40.67,6.55,90.36c-8.16,39.39-8.92,79-1,118.27,9.75,50.44,40.5,81.18,91.43,90.16a320.18,320.18,0,0,0,109.65.17c49.28-8.33,81.81-38.79,92.24-88.13A302.54,302.54,0,0,0,299,93.51Zm-15.1,115.36C279.4,230,270.44,247,257.24,259.59s-30.66,20.68-52,24.29A320.82,320.82,0,0,1,152,288.41a308.85,308.85,0,0,1-53.48-4.69C54.56,276,29.06,250.83,20.56,206.83l0-.17c-7.43-36.8-7.08-75.28,1-114.38C26,71,34.43,54.87,47.45,42.88c12.67-11.67,30.17-19.45,52-23.14a319.72,319.72,0,0,1,53.23-4.53,308.67,308.67,0,0,1,53.48,4.68c44.66,7.87,69.38,31.81,77.8,75.38A293.6,293.6,0,0,1,283.88,208.87Z"/><path class="cls-2" d="M206.16,19.88a308.75,308.75,0,0,0-53.48-4.68,319.93,319.93,0,0,0-53.24,4.53c-21.83,3.69-39.32,11.48-52,23.15C34.42,54.86,26,71,21.55,92.27c-8.11,39.1-8.46,77.59-1,114.39l0,.16c8.5,44,34,69.16,77.94,76.9A309.74,309.74,0,0,0,152,288.4a321,321,0,0,0,53.24-4.52c21.36-3.62,38.87-11.79,52-24.3s22.17-29.61,26.65-50.71A293.71,293.71,0,0,0,284,95.25C275.54,51.7,250.82,27.74,206.16,19.88Z"/><path class="cls-3" d="M116.05,173.57h94.14V188c-.58,0-1.18.08-1.77.08H117c-7.66,0-13.44-4.25-15-11.24a14.12,14.12,0,0,1,2.84-12.4c3.47-4.31,6.7-8.82,10-13.28a2.12,2.12,0,0,0,.2-1.66Q106,122.34,96.86,95.16C96.5,94.1,95.93,93.94,95,94c-4.36,0-8.71,0-13.07,0-.6,0-1.21,0-1.92-.08V79.52c.51,0,1-.1,1.58-.1,7.92,0,15.84,0,23.75,0a1.77,1.77,0,0,1,2,1.46q10.27,31,20.6,62a2.19,2.19,0,0,0,2.48,1.81q29.25-.09,58.52,0a2.42,2.42,0,0,0,2.6-1.74Q202,119.16,212.45,95.48c.51-1.17,1.07-1.89,2.47-1.64a10.49,10.49,0,0,0,1.86,0c6.22.09,9.53,5.15,7,10.87-3.68,8.43-7.43,16.82-11.14,25.23s-7.49,17-11.25,25.56a5.91,5.91,0,0,1-4.92,3.41,23.78,23.78,0,0,1-3.38.19q-32.15,0-64.29,0a3.24,3.24,0,0,0-3,1.46c-2.75,3.73-5.6,7.39-8.4,11.08C117.07,172.16,116.69,172.7,116.05,173.57Z"/><path class="cls-3" d="M152.38,108.52H137.89c7.34-9.8,14.48-19.31,21.74-29l21.69,28.92H166.91v29H152.38Z"/><path class="cls-3" d="M195.81,224.23a14.46,14.46,0,1,1,14.49-14.46A14.61,14.61,0,0,1,195.81,224.23Z"/><path class="cls-3" d="M115.92,224.22a14.46,14.46,0,1,1,14.68-14A14.46,14.46,0,0,1,115.92,224.22Z"/></svg>