<svg id="Layer_1" data-name="Layer 1" xmlns="http://www.w3.org/2000/svg" xmlns:xlink="http://www.w3.org/1999/xlink" viewBox="0 0 304.66 303.6"><defs><style>.cls-1{fill:url(#linear-gradient);}.cls-2{fill:url(#linear-gradient-2);}.cls-3{fill:#f1f2f2;}</style><linearGradient id="linear-gradient" x1="152.33" y1="247.19" x2="152.33" y2="-48.1" gradientTransform="matrix(1, 0, 0, -1, 0, 245.75)" gradientUnits="userSpaceOnUse"><stop offset="0" stop-color="#f3f3f3"/><stop offset="1" stop-color="#a6a6aa"/></linearGradient><linearGradient id="linear-gradient-2" x1="152.33" y1="288.4" x2="152.33" y2="15.2" gradientUnits="userSpaceOnUse"><stop offset="0" stop-color="#006838"/><stop offset="1" stop-color="#39b54a"/></linearGradient></defs><title>Icons2</title><path class="cls-1" d="M299,93.51c-9.75-50.43-40.37-79.73-91.3-88.7A320.38,320.38,0,0,0,98,4.64C48.57,13,16.86,40.67,6.55,90.36c-8.16,39.39-8.92,79-1,118.27,9.75,50.44,40.5,81.18,91.43,90.16a320.18,320.18,0,0,0,109.65.17c49.28-8.33,81.81-38.79,92.24-88.13A302.54,302.54,0,0,0,299,93.51Zm-15.1,115.36C279.4,230,270.44,247,257.24,259.59s-30.66,20.68-52,24.29A320.82,320.82,0,0,1,152,288.41a308.85,308.85,0,0,1-53.48-4.69C54.56,276,29.06,250.83,20.56,206.83l0-.17c-7.43-36.8-7.08-75.28,1-114.38C26,71,34.43,54.87,47.45,42.88c12.67-11.67,30.17-19.45,52-23.14a319.72,319.72,0,0,1,53.23-4.53,308.67,308.67,0,0,1,53.48,4.68c44.66,7.87,69.38,31.81,77.8,75.38A293.6,293.6,0,0,1,283.88,208.87Z"/><path class="cls-2" d="M206.16,19.88a308.75,308.75,0,0,0-53.48-4.68,319.93,319.93,0,0,0-53.24,4.53c-21.83,3.69-39.32,11.48-52,23.15C34.42,54.86,26,71,21.55,92.27c-8.11,39.1-8.46,77.59-1,114.39l0,.16c8.5,44,34,69.16,77.94,76.9A309.74,309.74,0,0,0,152,288.4a321,321,0,0,0,53.24-4.52c21.36-3.62,38.87-11.79,52-24.3s22.17-29.61,26.65-50.71A293.71,293.71,0,0,0,284,95.25C275.54,51.7,250.82,27.74,206.16,19.88Z"/><path class="cls-3" d="M159.05,253.41H145.54c-2.48-.31-5-.58-7.43-.94A99.63,99.63,0,0,1,88.58,231Q58,206.08,51.76,167.08c-.45-2.86-.78-5.74-1.17-8.6V145c.31-2.48.58-5,.94-7.44,2.43-16.65,8.22-32,18.43-45.44,24.28-31.88,56.58-45.63,96.35-41,18.38,2.12,34.89,9.45,49.29,21.12,23.64,19.17,36.42,44.07,38.28,74.4a93.65,93.65,0,0,1-7.46,43.59q-22.71,52.07-78.77,62.07C164.8,252.74,161.92,253,159.05,253.41ZM88.35,217c1.6-1.36,3.06-2.69,4.63-3.9,6.88-5.28,14.78-8.67,22.69-12,4.18-1.8,8.34-3.67,12.35-5.81a11.21,11.21,0,0,0,6.22-8.73,51.54,51.54,0,0,0,0-10.09,7.87,7.87,0,0,0-2.1-4.37c-3.66-3.8-6-8.33-8.1-13.07a13.64,13.64,0,0,0-3.1-4.22,14.65,14.65,0,0,1-5.06-10.8c-.09-3.76,1.94-6.1,4.81-8.14a3.82,3.82,0,0,0,1.34-2.81,66.42,66.42,0,0,0-.95-8c-.5-3-1.3-5.94-1.74-8.94C118.21,108,122,102.21,128,97.83c9.54-6.9,20.31-8.55,31.72-6.15,6.4,1.35,11.93,4.31,15.89,9.69a3.2,3.2,0,0,0,2.88,1.54c3.42,0,5.73,1.72,6.29,5.12a29.49,29.49,0,0,1,.17,8.07c-.55,4.58-1.51,9.12-2.33,13.67-.53,3-.44,5.51,2.7,7.29,2.47,1.4,3.29,4,3.27,6.83A13.16,13.16,0,0,1,184,154.23a13.93,13.93,0,0,0-3.94,5.58c-1.63,4-3.51,7.89-6.64,10.95a11.13,11.13,0,0,0-3.44,8.36c0,1.53.11,3,.1,4.57a12.35,12.35,0,0,0,7,11.8c4.74,2.46,9.66,4.56,14.56,6.68,7,3.06,14,6.29,20.12,11,1.56,1.19,3,2.51,4.5,3.76,33.75-32.19,38.49-89,3.42-127C183.79,51.09,123.35,50.29,87,87.68,50.29,125.37,53.55,183.54,88.35,217Z"/></svg>